<svg width="223" height="53" viewBox="0 0 223 53" fill="none" xmlns="http://www.w3.org/2000/svg">
<path fill-rule="evenodd" clip-rule="evenodd" d="M0.24707 15.3594V52H10.2275V31.4922C10.2275 26.1602 13.0986 23.2207 18.0205 23.2207C19.4561 23.2207 20.8232 23.4258 21.6436 23.7676V14.9834C20.8916 14.7783 19.8662 14.6074 18.7725 14.6074C14.5 14.6074 11.5264 17.2393 10.4326 21.751H10.2275V15.3594H0.24707ZM24.5816 33.748C24.5816 45.4717 31.3834 52.752 42.5943 52.752C53.0533 52.752 58.1119 46.5654 59.2398 41.165L59.3424 40.7891H50.1822L50.1139 40.9941C49.3961 43.0449 46.901 45.3008 42.7994 45.3008C37.7066 45.3008 34.5279 41.8828 34.4254 36.0381H59.65V32.9619C59.65 21.8877 52.9166 14.6074 42.1842 14.6074C31.4518 14.6074 24.5816 22.0586 24.5816 33.7139V33.748ZM34.5279 29.749C35.1773 24.793 38.2535 22.0586 42.3551 22.0586C46.4908 22.0586 49.4645 24.6904 50.0797 29.749H34.5279ZM67.0656 2.67871V52H76.26V18.6406H76.5334L89.8635 52H96.3576L109.654 18.6406H109.961V52H119.155V2.67871H107.227L93.2131 38.123H93.008L78.9943 2.67871H67.0656ZM127.767 5.44727C127.767 8.28418 130.092 10.6426 133.099 10.6426C136.107 10.6426 138.431 8.28418 138.431 5.44727C138.431 2.61035 136.107 0.251953 133.099 0.251953C130.092 0.251953 127.767 2.61035 127.767 5.44727ZM128.109 15.3594V52H138.09V15.3594H128.109ZM146.189 15.3594V52H156.169V30.9453C156.169 26.1602 159.006 22.8789 163.484 22.8789C167.961 22.8789 170.217 25.6133 170.217 30.3984V52H180.198V28.3477C180.198 19.7686 175.618 14.6074 167.551 14.6074C162.014 14.6074 158.254 17.1709 156.374 21.375H156.169V15.3594H146.189ZM186.588 33.6797C186.588 45.5742 192.262 52.752 201.49 52.752C206.788 52.752 210.821 50.0859 212.77 45.7451H212.975V52H222.955V2.67871H212.975V21.7168H212.77C210.787 17.2734 206.686 14.6074 201.49 14.6074C192.262 14.6074 186.588 21.7168 186.588 33.6455V33.6797ZM213.009 33.6797C213.009 40.3105 209.693 44.4805 204.84 44.4805C199.85 44.4805 196.739 40.3447 196.739 33.6797V33.6455C196.739 26.9463 199.884 22.8789 204.84 22.8789C209.659 22.8789 213.009 27.0488 213.009 33.6455V33.6797Z" fill="url(#paint0_linear_5_1567)"/>
<defs>
<linearGradient id="paint0_linear_5_1567" x1="-38" y1="20" x2="261" y2="25" gradientUnits="userSpaceOnUse">
<stop stop-color="#B2FCDB"/>
<stop offset="0.473958" stop-color="#C9CEFC"/>
<stop offset="1" stop-color="#F0C2FC"/>
</linearGradient>
</defs>
</svg>
